<?xml version="1.0" encoding="UTF-8" standalone="no"?>
<!-- Created with Inkscape (http://www.inkscape.org/) -->

<svg
   width="81mm"
   height="81mm"
   viewBox="0 0 81 81"
   version="1.1"
   id="svg1"
   inkscape:version="1.3.2 (091e20e, 2023-11-25)"
   sodipodi:docname="Amplitude_error.svg"
   inkscape:export-filename="../Amplitude_error.png"
   inkscape:export-xdpi="96"
   inkscape:export-ydpi="96"
   xmlns:inkscape="http://www.inkscape.org/namespaces/inkscape"
   xmlns:sodipodi="http://sodipodi.sourceforge.net/DTD/sodipodi-0.dtd"
   xmlns:xlink="http://www.w3.org/1999/xlink"
   xmlns="http://www.w3.org/2000/svg"
   xmlns:svg="http://www.w3.org/2000/svg">
  <sodipodi:namedview
     id="namedview1"
     pagecolor="#ffffff"
     bordercolor="#000000"
     borderopacity="0.25"
     inkscape:showpageshadow="2"
     inkscape:pageopacity="0.0"
     inkscape:pagecheckerboard="0"
     inkscape:deskcolor="#d1d1d1"
     inkscape:document-units="mm"
     inkscape:zoom="0.70534806"
     inkscape:cx="129.72319"
     inkscape:cy="219.04079"
     inkscape:window-width="1512"
     inkscape:window-height="834"
     inkscape:window-x="0"
     inkscape:window-y="38"
     inkscape:window-maximized="0"
     inkscape:current-layer="layer1" />
  <defs
     id="defs1">
    <linearGradient
       id="linearGradient1"
       inkscape:collect="always">
      <stop
         style="stop-color:#000000;stop-opacity:1;"
         offset="0"
         id="stop1" />
      <stop
         style="stop-color:#fffb00;stop-opacity:1;"
         offset="1"
         id="stop2" />
    </linearGradient>
    <linearGradient
       id="linearGradient10"
       inkscape:collect="always">
      <stop
         style="stop-color:#000000;stop-opacity:1;"
         offset="0"
         id="stop10" />
      <stop
         style="stop-color:#000000;stop-opacity:0;"
         offset="1"
         id="stop11" />
    </linearGradient>
    <radialGradient
       inkscape:collect="always"
       xlink:href="#linearGradient10"
       id="radialGradient11"
       cx="89.294075"
       cy="65.765121"
       fx="89.294075"
       fy="65.765121"
       r="12.213426"
       gradientTransform="matrix(2.2258233,0,0,7.4525056,-112.04103,-435.23831)"
       gradientUnits="userSpaceOnUse" />
    <marker
       style="overflow:visible"
       id="Triangle-2"
       refX="0"
       refY="0"
       orient="auto-start-reverse"
       inkscape:stockid="Triangle arrow"
       markerWidth="1"
       markerHeight="1"
       viewBox="0 0 1 1"
       inkscape:isstock="true"
       inkscape:collect="always"
       preserveAspectRatio="xMidYMid">
      <path
         transform="scale(0.5)"
         style="fill:context-stroke;fill-rule:evenodd;stroke:context-stroke;stroke-width:1pt"
         d="M 5.77,0 -2.88,5 V -5 Z"
         id="path135-4" />
    </marker>
    <linearGradient
       inkscape:collect="always"
       xlink:href="#linearGradient1"
       id="linearGradient2"
       x1="-126.02815"
       y1="-14.765329"
       x2="-48.884807"
       y2="-14.765329"
       gradientUnits="userSpaceOnUse"
       gradientTransform="matrix(0.75030415,0,0,0.75030415,128.59057,67.639424)" />
  </defs>
  <g
     inkscape:label="Layer 1"
     inkscape:groupmode="layer"
     id="layer1"
     transform="translate(-22.471605,-16.060925)">
    <path
       style="fill:none;stroke:url(#radialGradient11);stroke-width:1.22199;stroke-opacity:1"
       d="m 59.858051,96.824248 c 0.624121,-0.0096 1.25049,-0.01911 1.874611,-0.03184 0.62412,-0.01273 1.250467,-0.02229 1.874588,-0.03789 0.624121,-0.01273 1.25049,-0.02865 1.874611,-0.04808 0.624121,-0.0191 1.250467,-0.03885 1.874588,-0.06273 0.624121,-0.02229 1.248242,-0.05063 1.874611,-0.08278 0.624121,-0.03216 1.248241,-0.06941 1.874588,-0.113352 0.624121,-0.04457 1.248242,-0.09679 1.874611,-0.160792 0.624121,-0.06463 1.248241,-0.140731 1.874588,-0.238801 0.624121,-0.09806 1.248242,-0.216193 1.872363,-0.37517 0.626369,-0.158882 1.250489,-0.355781 1.87461,-0.637502 0.626347,-0.281148 1.250468,-0.640877 1.874589,-1.205814 0.626369,-0.565002 1.250489,-1.30818 1.87461,-2.667081 0.626344,-1.358807 1.250464,-3.211897 1.874584,-7.361412 0.62637,-4.149519 1.25049,-12.320397 1.87462,-22.326056 0.62412,-10.005658 1.25046,-10.002589 1.87458,0 0.62412,10.002589 1.25049,18.171462 1.87461,22.326056 0.62413,4.15461 1.25047,6.001205 1.87459,7.361412 0.62412,1.360238 1.25049,2.101665 1.87461,2.667081 0.62412,0.565383 1.24825,0.924126 1.87459,1.205814 0.62412,0.281785 1.24824,0.478651 1.87461,0.637502 0.62412,0.158881 1.24824,0.277008 1.87459,0.37517 0.62412,0.09807 1.248237,0.174166 1.874607,0.238801 0.62412,0.064 1.24824,0.116212 1.87459,0.160792 0.62412,0.04394 1.24824,0.08151 1.87236,0.113352 0.62637,0.03216 1.25049,0.05954 1.87461,0.08278 0.62635,0.02548 1.25047,0.04457 1.87459,0.06273 0.62637,0.0191 1.25049,0.03407 1.87461,0.04808 0.62635,0.01592 1.25047,0.02548 1.87459,0.03789 0.62413,0.01273 1.25049,0.02229 1.87462,0.03184"
       title="t 1/(1+t**2)"
       id="path9" />
    <path
       style="opacity:1;fill:none;fill-opacity:1;stroke:#000000;stroke-width:1.04618;stroke-linecap:round;stroke-linejoin:round;stroke-dasharray:none;stroke-opacity:1;marker-end:url(#Triangle-2)"
       d="M 99.222403,95.740242 V 58.39515"
       id="path16-2" />
    <text
       xml:space="preserve"
       style="font-size:81.0809px;font-family:Georgia;-inkscape-font-specification:Georgia;text-align:center;letter-spacing:0px;text-anchor:middle;fill:#000000;fill-opacity:0.2;stroke-width:0.798039;stroke-linecap:round;stroke-linejoin:round"
       x="51.29332"
       y="97.435173"
       id="text1-3"><tspan
         sodipodi:role="line"
         id="tspan1-9"
         style="font-size:81.0809px;fill:#000000;fill-opacity:0.2;stroke-width:0.798039"
         x="51.29332"
         y="97.435173">A</tspan></text>
    <path
       style="fill:#0004e1;fill-opacity:1;stroke-width:1;stroke-linecap:round;stroke-linejoin:round;stroke-dasharray:none;stroke:#000000;stroke-opacity:1"
       d="M 87.037491,53.360859 H 103.4716"
       id="path2" />
    <text
       xml:space="preserve"
       style="font-size:81.0809px;font-family:Georgia;-inkscape-font-specification:Georgia;text-align:center;letter-spacing:0px;text-anchor:middle;fill:url(#linearGradient2);stroke-width:0.798039;stroke-linecap:round;stroke-linejoin:round"
       x="62.852833"
       y="85.046135"
       id="text1"><tspan
         sodipodi:role="line"
         id="tspan1"
         style="font-size:81.0809px;fill:url(#linearGradient2);fill-opacity:1;stroke-width:0.798039"
         x="62.852833"
         y="85.046135">A</tspan></text>
  </g>
</svg>
