<?xml version="1.0" encoding="UTF-8" standalone="no"?>
<!-- Created with Inkscape (http://www.inkscape.org/) -->

<svg
   width="81mm"
   height="81mm"
   viewBox="0 0 81 81"
   version="1.1"
   id="svg1"
   inkscape:version="1.3.2 (091e20e, 2023-11-25)"
   sodipodi:docname="Nu_error.svg"
   inkscape:export-filename="../Nu_error.png"
   inkscape:export-xdpi="96"
   inkscape:export-ydpi="96"
   xmlns:inkscape="http://www.inkscape.org/namespaces/inkscape"
   xmlns:sodipodi="http://sodipodi.sourceforge.net/DTD/sodipodi-0.dtd"
   xmlns:xlink="http://www.w3.org/1999/xlink"
   xmlns="http://www.w3.org/2000/svg"
   xmlns:svg="http://www.w3.org/2000/svg">
  <sodipodi:namedview
     id="namedview1"
     pagecolor="#ffffff"
     bordercolor="#000000"
     borderopacity="0.25"
     inkscape:showpageshadow="2"
     inkscape:pageopacity="0.0"
     inkscape:pagecheckerboard="0"
     inkscape:deskcolor="#d1d1d1"
     inkscape:document-units="mm"
     inkscape:zoom="0.95615812"
     inkscape:cx="110.86033"
     inkscape:cy="150.07978"
     inkscape:window-width="1512"
     inkscape:window-height="834"
     inkscape:window-x="0"
     inkscape:window-y="38"
     inkscape:window-maximized="0"
     inkscape:current-layer="layer1" />
  <defs
     id="defs1">
    <linearGradient
       id="linearGradient10"
       inkscape:collect="always">
      <stop
         style="stop-color:#000000;stop-opacity:1;"
         offset="0"
         id="stop10" />
      <stop
         style="stop-color:#000000;stop-opacity:0;"
         offset="1"
         id="stop11" />
    </linearGradient>
    <linearGradient
       id="linearGradient8"
       inkscape:collect="always">
      <stop
         style="stop-color:#000000;stop-opacity:1;"
         offset="0"
         id="stop8" />
      <stop
         style="stop-color:#fffb00;stop-opacity:1;"
         offset="1"
         id="stop9" />
    </linearGradient>
    <radialGradient
       inkscape:collect="always"
       xlink:href="#linearGradient10"
       id="radialGradient11"
       cx="89.294075"
       cy="65.765121"
       fx="89.294075"
       fy="65.765121"
       r="12.213426"
       gradientTransform="matrix(2.2258233,0,0,7.4525056,-112.04103,-435.23831)"
       gradientUnits="userSpaceOnUse" />
    <marker
       style="overflow:visible"
       id="Triangle-2"
       refX="0"
       refY="0"
       orient="auto-start-reverse"
       inkscape:stockid="Triangle arrow"
       markerWidth="1"
       markerHeight="1"
       viewBox="0 0 1 1"
       inkscape:isstock="true"
       inkscape:collect="always"
       preserveAspectRatio="xMidYMid">
      <path
         transform="scale(0.5)"
         style="fill:context-stroke;fill-rule:evenodd;stroke:context-stroke;stroke-width:1pt"
         d="M 5.77,0 -2.88,5 V -5 Z"
         id="path135-4" />
    </marker>
    <linearGradient
       inkscape:collect="always"
       xlink:href="#linearGradient8"
       id="linearGradient17"
       x1="-37.695805"
       y1="-84.497299"
       x2="-8.8407574"
       y2="-84.497299"
       gradientUnits="userSpaceOnUse"
       gradientTransform="matrix(1.771561,0,0,1.771561,104.19278,206.25304)" />
  </defs>
  <g
     inkscape:label="Layer 1"
     inkscape:groupmode="layer"
     id="layer1"
     transform="translate(-22.471605,-16.060925)">
    <rect
       style="fill:none;stroke:#ffffff;stroke-width:1"
       id="rect1"
       width="80"
       height="80"
       x="22.971605"
       y="16.560925" />
    <path
       style="fill:none;stroke:url(#radialGradient11);stroke-width:1.22199;stroke-opacity:1"
       d="m 59.858051,96.824248 c 0.624121,-0.0096 1.25049,-0.01911 1.874611,-0.03184 0.62412,-0.01273 1.250467,-0.02229 1.874588,-0.03789 0.624121,-0.01273 1.25049,-0.02865 1.874611,-0.04808 0.624121,-0.0191 1.250467,-0.03885 1.874588,-0.06273 0.624121,-0.02229 1.248242,-0.05063 1.874611,-0.08278 0.624121,-0.03216 1.248241,-0.06941 1.874588,-0.113352 0.624121,-0.04457 1.248242,-0.09679 1.874611,-0.160792 0.624121,-0.06463 1.248241,-0.140731 1.874588,-0.238801 0.624121,-0.09806 1.248242,-0.216193 1.872363,-0.37517 0.626369,-0.158882 1.250489,-0.355781 1.87461,-0.637502 0.626347,-0.281148 1.250468,-0.640877 1.874589,-1.205814 0.626369,-0.565002 1.250489,-1.30818 1.87461,-2.667081 0.626344,-1.358807 1.250464,-3.211897 1.874584,-7.361412 0.62637,-4.149519 1.25049,-12.320397 1.87462,-22.326056 0.62412,-10.005658 1.25046,-10.002589 1.87458,0 0.62412,10.002589 1.25049,18.171462 1.87461,22.326056 0.62413,4.15461 1.25047,6.001205 1.87459,7.361412 0.62412,1.360238 1.25049,2.101665 1.87461,2.667081 0.62412,0.565383 1.24825,0.924126 1.87459,1.205814 0.62412,0.281785 1.24824,0.478651 1.87461,0.637502 0.62412,0.158881 1.24824,0.277008 1.87459,0.37517 0.62412,0.09807 1.248237,0.174166 1.874607,0.238801 0.62412,0.064 1.24824,0.116212 1.87459,0.160792 0.62412,0.04394 1.24824,0.08151 1.87236,0.113352 0.62637,0.03216 1.25049,0.05954 1.87461,0.08278 0.62635,0.02548 1.25047,0.04457 1.87459,0.06273 0.62637,0.0191 1.25049,0.03407 1.87461,0.04808 0.62635,0.01592 1.25047,0.02548 1.87459,0.03789 0.62413,0.01273 1.25049,0.02229 1.87462,0.03184"
       title="t 1/(1+t**2)"
       id="path9" />
    <path
       style="opacity:1;fill:none;fill-opacity:1;stroke:#000000;stroke-width:1;stroke-linecap:round;stroke-linejoin:round;stroke-dasharray:none;stroke-opacity:1;marker-end:url(#Triangle-2)"
       d="m 87.037491,93.474427 v -9.41327"
       id="path16-2" />
    <path
       id="path46-8"
       d="m 41.003114,50.287777 c 0,-0.124555 0,-1.277835 -1.405753,-1.277835 -2.428079,0 -10.351512,0.894083 -13.163032,1.149982 -0.894541,0.12449 -2.045276,0.12449 -2.045276,2.172506 0,1.277833 0.894348,1.277833 2.555911,1.277833 5.239568,0 5.367436,0.766329 5.367436,1.789088 0,0.766323 -1.277836,5.878753 -2.045321,8.818015 l -6.645371,26.709539 c -0.383803,1.53349 -1.150103,4.60058 -1.150103,4.85616 0,1.1501 1.150103,1.27786 1.789122,1.27786 h 1.533484 C 33.334256,95.783065 45.219276,91.565605 56.337604,81.08623 70.650837,67.667588 73.59008,52.971016 73.59008,51.948664 c 0,-1.789122 -1.27784,-2.939208 -3.067131,-2.939208 -0.894346,0 -3.450515,0.511177 -4.217266,3.57824 -7.02886,24.664766 -23.514537,36.805399 -35.910894,40.894879 z m 0,0"
       style="opacity:0.2;fill:#000000;fill-opacity:1;fill-rule:nonzero;stroke:none;stroke-width:10.9054" />
    <path
       id="path46"
       d="m 55.943877,33.813515 c 0,-0.124556 0,-1.277835 -1.405753,-1.277835 -2.428077,0 -10.351512,0.894084 -13.163031,1.149982 -0.894541,0.124489 -2.045275,0.124489 -2.045275,2.172505 0,1.277834 0.894346,1.277834 2.55591,1.277834 5.239567,0 5.367435,0.766328 5.367435,1.789088 0,0.766323 -1.277835,5.878752 -2.045319,8.818014 L 38.562471,74.45264 c -0.383803,1.533489 -1.150103,4.600586 -1.150103,4.856165 0,1.150108 1.150103,1.27785 1.789123,1.27785 h 1.533483 C 48.275019,79.308805 60.160039,75.091341 71.278367,64.611967 85.5916,51.193325 88.530841,36.496753 88.530841,35.474401 c 0,-1.789122 -1.277838,-2.939207 -3.067129,-2.939207 -0.894346,0 -3.450515,0.511176 -4.217265,3.578239 C 74.217586,60.7782 57.731909,72.918829 45.335553,77.008315 Z m 0,0"
       style="fill:url(#linearGradient17);fill-opacity:1;fill-rule:nonzero;stroke:none;stroke-width:10.9054" />
  </g>
</svg>
