<?xml version="1.0" encoding="UTF-8" standalone="no"?>
<!-- Created with Inkscape (http://www.inkscape.org/) -->

<svg
   width="81mm"
   height="81mm"
   viewBox="0 0 81 81"
   version="1.1"
   id="svg1"
   inkscape:version="1.3.2 (091e20e, 2023-11-25)"
   sodipodi:docname="PSD.svg"
   inkscape:export-filename="../PSD.png"
   inkscape:export-xdpi="96"
   inkscape:export-ydpi="96"
   xmlns:inkscape="http://www.inkscape.org/namespaces/inkscape"
   xmlns:sodipodi="http://sodipodi.sourceforge.net/DTD/sodipodi-0.dtd"
   xmlns:xlink="http://www.w3.org/1999/xlink"
   xmlns="http://www.w3.org/2000/svg"
   xmlns:svg="http://www.w3.org/2000/svg">
  <sodipodi:namedview
     id="namedview1"
     pagecolor="#ffffff"
     bordercolor="#000000"
     borderopacity="0.25"
     inkscape:showpageshadow="2"
     inkscape:pageopacity="0.0"
     inkscape:pagecheckerboard="0"
     inkscape:deskcolor="#d1d1d1"
     inkscape:document-units="mm"
     inkscape:zoom="0.53678382"
     inkscape:cx="-87.558526"
     inkscape:cy="50.299579"
     inkscape:window-width="1512"
     inkscape:window-height="831"
     inkscape:window-x="0"
     inkscape:window-y="41"
     inkscape:window-maximized="0"
     inkscape:current-layer="layer1" />
  <defs
     id="defs1">
    <linearGradient
       id="linearGradient1"
       inkscape:collect="always">
      <stop
         style="stop-color:#000000;stop-opacity:1;"
         offset="0"
         id="stop1" />
      <stop
         style="stop-color:#0005ff;stop-opacity:1;"
         offset="1"
         id="stop2" />
    </linearGradient>
    <linearGradient
       inkscape:collect="always"
       xlink:href="#linearGradient1"
       id="linearGradient2"
       x1="27.263305"
       y1="56.560922"
       x2="98.679909"
       y2="56.560922"
       gradientUnits="userSpaceOnUse"
       gradientTransform="matrix(0.38742049,0,0,0.38742049,39.846419,55.30938)" />
  </defs>
  <g
     inkscape:label="Layer 1"
     inkscape:groupmode="layer"
     id="layer1"
     transform="translate(-22.471605,-16.060925)">
    <text
       xml:space="preserve"
       style="font-size:41.0018px;font-family:Arial;-inkscape-font-specification:Arial;text-align:center;letter-spacing:0px;text-anchor:middle;opacity:0.2;fill:#000000;fill-opacity:1;stroke:none;stroke-width:3.07516;stroke-linecap:round;stroke-linejoin:round"
       x="60.009876"
       y="96.480331"
       id="text1-5"><tspan
         sodipodi:role="line"
         id="tspan1-4"
         style="font-style:normal;font-variant:normal;font-weight:normal;font-stretch:normal;font-size:41.0018px;font-family:Georgia;-inkscape-font-specification:Georgia;fill:#000000;fill-opacity:1;stroke:none;stroke-width:3.07516"
         x="60.009876"
         y="96.480331">PSD</tspan></text>
    <text
       xml:space="preserve"
       style="font-size:41.0018px;font-family:Arial;-inkscape-font-specification:Arial;text-align:center;letter-spacing:0px;text-anchor:middle;opacity:1;fill:url(#linearGradient2);stroke:none;stroke-width:3.07516;stroke-linecap:round;stroke-linejoin:round"
       x="62.831463"
       y="91.426758"
       id="text1"><tspan
         sodipodi:role="line"
         id="tspan1"
         style="font-style:normal;font-variant:normal;font-weight:normal;font-stretch:normal;font-size:41.0018px;font-family:Georgia;-inkscape-font-specification:Georgia;fill:url(#linearGradient2);fill-opacity:1;stroke:none;stroke-width:3.07516"
         x="62.831463"
         y="91.426758">PSD</tspan></text>
    <path
       style="fill:none;stroke:#000000;stroke-width:0.743244;stroke-opacity:1"
       d="m 22.453272,56.332005 c 0.930398,-0.0086 1.860831,-0.01851 2.791262,-0.03026 0.933737,-0.01176 1.864168,-0.0254 2.794601,-0.04206 0.933736,-0.01668 1.864168,-0.03634 2.794566,-0.06119 0.933771,-0.02485 1.864202,-0.0548 2.794601,-0.09444 0.93377,-0.03966 1.864201,-0.08862 2.7946,-0.158046 0.930432,-0.06944 1.864202,-0.157713 2.794601,-0.297092 0.930431,-0.139392 1.864169,-0.320746 2.7946,-0.668575 0.930431,-0.347846 1.864168,-0.77575 2.794599,-2.059662 0.930433,-1.283913 1.864169,-1.861779 2.794602,-11.956063 0.930431,-10.094285 1.864168,-34.4607522 2.794599,-14.922125 0.930433,19.538596 1.86083,22.798604 2.794601,25.084457 0.930431,2.285857 1.860831,2.82405 2.7946,3.310959 0.930399,0.486925 1.86083,0.700232 2.794601,0.853606 0.930398,0.153391 1.860831,0.227668 2.7946,0.266049 0.930399,0.03838 1.86083,0.0383 2.791261,0 0.933738,-0.0383 1.864169,-0.112824 2.794601,-0.266049 0.933736,-0.153208 1.864169,-0.36731 2.7946,-0.853606 0.933738,-0.486295 1.864169,-1.029458 2.794568,-3.310959 0.933769,-2.281482 1.864202,-5.562823 2.794599,-25.084457 0.933772,-19.5215654 1.864203,4.803325 2.794602,14.922125 0.930431,10.11885 1.864202,10.670096 2.794599,11.956063 0.930433,1.285982 1.864202,1.711434 2.794602,2.059662 0.930431,0.348211 1.864168,0.529066 2.794599,0.668575 0.930433,0.139495 1.864169,0.227619 2.794601,0.297092 0.930431,0.06947 1.860831,0.118373 2.7946,0.158046 0.930431,0.03968 1.86083,0.06957 2.7946,0.09444 0.930432,0.02487 1.86083,0.04452 2.794604,0.06119 0.930425,0.01667 1.860832,0.0303 2.794599,0.04206 0.9304,0.01176 1.86084,0.02163 2.79459,0.03026"
       title="t 1/((t-5)**2+(0.5)**2) + 1/((t+5)**2+(0.5)**2)"
       id="path6" />
  </g>
</svg>
