<?xml version="1.0" encoding="UTF-8" standalone="no"?>
<!-- Created with Inkscape (http://www.inkscape.org/) -->

<svg
   width="81mm"
   height="81mm"
   viewBox="0 0 81 81"
   version="1.1"
   id="svg1"
   inkscape:version="1.3.2 (091e20e, 2023-11-25)"
   sodipodi:docname="treat_spectra.svg"
   inkscape:export-filename="../treat_spectra.png"
   inkscape:export-xdpi="96"
   inkscape:export-ydpi="96"
   xml:space="preserve"
   xmlns:inkscape="http://www.inkscape.org/namespaces/inkscape"
   xmlns:sodipodi="http://sodipodi.sourceforge.net/DTD/sodipodi-0.dtd"
   xmlns:xlink="http://www.w3.org/1999/xlink"
   xmlns="http://www.w3.org/2000/svg"
   xmlns:svg="http://www.w3.org/2000/svg"><sodipodi:namedview
     id="namedview1"
     pagecolor="#ffffff"
     bordercolor="#000000"
     borderopacity="0.25"
     inkscape:showpageshadow="2"
     inkscape:pageopacity="0.0"
     inkscape:pagecheckerboard="0"
     inkscape:deskcolor="#d1d1d1"
     inkscape:document-units="mm"
     inkscape:zoom="1.4575061"
     inkscape:cx="193.48118"
     inkscape:cy="100.85721"
     inkscape:window-width="1512"
     inkscape:window-height="831"
     inkscape:window-x="0"
     inkscape:window-y="38"
     inkscape:window-maximized="0"
     inkscape:current-layer="layer1" /><defs
     id="defs1"><linearGradient
       id="linearGradient7"
       inkscape:collect="always"><stop
         style="stop-color:#d5c1c1;stop-opacity:1;"
         offset="0"
         id="stop7" /><stop
         style="stop-color:#ffffff;stop-opacity:1;"
         offset="1"
         id="stop8" /></linearGradient><linearGradient
       id="linearGradient5"
       inkscape:collect="always"><stop
         style="stop-color:#000000;stop-opacity:1;"
         offset="0"
         id="stop5" /><stop
         style="stop-color:#ffffff;stop-opacity:1;"
         offset="1"
         id="stop6" /></linearGradient><linearGradient
       inkscape:collect="always"
       xlink:href="#linearGradient5"
       id="linearGradient6"
       x1="70.147842"
       y1="63.172735"
       x2="80.27525"
       y2="63.172735"
       gradientUnits="userSpaceOnUse"
       gradientTransform="translate(-71.251172,40.81162)" /><linearGradient
       inkscape:collect="always"
       xlink:href="#linearGradient7"
       id="linearGradient8"
       x1="70.211551"
       y1="33.806915"
       x2="80.211551"
       y2="33.806915"
       gradientUnits="userSpaceOnUse"
       gradientTransform="translate(-71.251172,40.81162)" /></defs><g
     inkscape:label="Layer 1"
     inkscape:groupmode="layer"
     id="layer1"
     transform="translate(-22.471605,-16.060925)"><path
       style="fill:none;fill-opacity:1;stroke:#5500ff;stroke-width:0.845;stroke-dasharray:none;stroke-opacity:1"
       d="m 0.06777803,92.607672 c -0.186589,0.731266 -0.335188,1.47329 -0.559768,2.193796 -0.09868,0.316582 0,-0.663208 0,-0.99481 0,-1.014142 -0.03239,2.353985 0.559768,-1.198986 0.09824,-0.589457 -0.429094,-1.250947 -0.161843,-1.785448 0.104867,-0.209735 0.397924,-0.955638 0.397924,-1.193773 0,-0.166219 0.258109,-1.134626 0.596886,-0.795848 0.41538397,0.415385 0.62391697,3.149862 0.79584897,3.780282 0.07804,0.286144 0.314235,0.511304 0.397924,0.795848 0.379087,1.288894 0.633535,2.515814 0.994811,3.780282 0.0504,0.176387 0.52199,2.064517 0.795849,1.790657 0.572836,-0.572836 0.127356,-2.467332 0.198962,-3.183392 0.185741,-1.857407 0.441467,-3.705908 0.596886,-5.570942 0.06166,-0.739897 0.147372,-3.503933 0.596887,-4.178205 0.372308,-0.558464 0.397924,1.307587 0.397924,2.188583 0,1.517811 -0.08898,-0.156951 0.198962,0.994812 0.109235,0.436936 -0.109234,0.955797 0,1.392735 0.101745,0.406977 0.198963,0.406387 0.198963,0.795848 0,0.371311 0.04247,0.283909 0.198962,0.596887 0.522228,1.044456 0.418474,-0.0411 0.596886,-0.397925 0.08389,-0.167778 0.314035,-0.230146 0.397925,-0.397923 0.05932,-0.118639 -0.04194,-0.27209 0,-0.397926 0.0819,-0.245684 1.091437,-1.892995 1.392735,-1.591696 0.362785,0.362784 1.00841,3.780279 1.193773,3.780279 0.115155,0 0.146933,-0.734665 0.198962,-0.994809 0.103783,-0.518917 0.733837,-3.152389 1.193773,-3.382357 0.522079,-0.26104 1.36621,2.745682 1.790659,3.382357 0.104053,0.156078 0.314035,0.230145 0.397925,0.397923 0.05945,0.118906 -0.130975,0.397925 0.198962,0.397925 0.01531,0 -0.02551,-0.693817 0,-0.795848 0.06283,-0.251325 0.774937,-2.963521 0.795848,-2.984434 0.05038,-0.05038 0.45401,-0.294211 0.596887,-0.198961 0.279152,0.186102 1.811045,2.964047 2.188584,2.586508 0.03549,-0.03549 0.357001,-2.800278 0.397924,-2.984434 0.247872,-1.115422 0.690736,-2.11913 0.994811,-3.183392 0.117494,-0.411229 0.135649,-1.36108 0.596886,-1.591699 0.265283,-0.132641 0.28109,0.523235 0.397925,0.795851 0.232096,0.541557 1.756043,3.581318 1.790659,3.581318 0.0553,0 0.365937,-1.909652 0.397924,-1.989622 0.397663,-0.994156 1.41814,-2.510295 1.989622,-0.795848 0.06632,0.198961 0.132641,0.397923 0.198962,0.596887 0.132642,0.198961 0.309117,0.374864 0.397925,0.596886 0.0071,0.0177 0.527186,2.656208 0.99481,2.188583 0.211259,-0.211259 0.157594,-0.945565 0.198963,-1.193773 0.139774,-0.83865 1.000428,-2.990051 1.591697,-3.581318 0.51035,-0.510352 0.818474,1.216398 0.994811,1.392735 0.0469,0.0469 0.152066,-0.0469 0.198962,0 0.0199,0.0199 -0.09285,0.689734 0.198962,0.397923 0.140687,-0.140687 -0.03902,-0.401789 0,-0.596887 0.113212,-0.566058 0.944381,-3.357142 1.392735,-3.581318 0.03413,-0.01707 0.582543,-0.02151 0.596887,0 0.116334,0.1745 0.10517,0.409302 0.198962,0.596887 0.148297,0.296595 0.448589,0.499252 0.596886,0.795848 0.221882,0.443764 0.371006,0.940974 0.596887,1.392735 0.192709,0.385421 0.423967,0.648972 0.596886,0.994812 0.02966,0.05932 0,0.265282 0,0.198961 0,-0.257318 0.654634,-4.120457 1.392736,-3.382356 0.04689,0.04689 -0.02966,0.139641 0,0.198961 0.08389,0.16778 0.314034,0.230145 0.397924,0.397925 0.07885,0.1577 0.07212,0.596887 0.198962,0.596887 0.198962,0 0,-0.397925 0,-0.596887 0,-1.227531 -0.152005,-2.564241 0,-3.780282 0.09197,-0.735761 0.293062,-1.454546 0.397924,-2.188583 0.05416,-0.379118 0.0258,-1.0464 0.198959,-1.392735 0.43648,-0.872953 1.19378,3.388083 1.19378,1.591697 0,-0.331603 0,-0.663207 0,-0.99481 0,-0.530566 0,-1.061132 0,-1.591699 0,-0.549984 -0.11672,-5.454221 0,-5.570939 0.53111,-0.531109 1.31824,2.63648 1.39273,2.78547 0.38278,0.76555 0.1884,-2.125184 0.19896,-2.188584 0.0244,-0.14628 0.18057,-0.250772 0.19897,-0.397925 0.0733,-0.586134 0.1536,-3.336994 0.59688,-3.780279 0.48786,-0.487857 0.85556,1.452446 0.99481,1.591696 0.44932,0.449313 0.19897,-0.716841 0.19897,-1.193773 0,-1.856981 0,-3.713959 0,-5.57094 0,-0.320776 -0.16767,-1.01046 0.19896,-1.193774 0.24286,-0.121427 0.77598,1.372865 0.99481,1.591697 0.10486,0.104862 0.19896,0.546221 0.19896,0.397925 0,-2.520188 0,-5.040376 0,-7.560561 0,-0.324567 -0.0218,-2.564731 0.19896,-2.785472 0.0938,-0.09379 0.30414,-0.09379 0.39793,0 0.1855,0.185503 1.27965,2.785472 1.59169,2.785472 0.21041,0 0.32072,-1.270979 0.59689,-0.994812 0.0938,0.09379 -0.0419,0.272089 0,0.397925 0.50286,1.508585 0.79759,2.998369 0.99481,4.57613 0.10581,0.84645 0.33574,1.803064 0.59689,2.586506 0.25769,0.773089 0,2.833507 0,3.58132 0,1.856981 0,3.713959 0,5.57094 0,0.132641 0,0.530566 0,0.397925 0,-0.663207 0,-1.326414 0,-1.989621 0,-1.563725 0.20418,-3.225186 0.39792,-4.775092 0.026,-0.208105 0.10517,-0.784471 0.19896,-0.596886 0.0593,0.118636 -0.0322,0.269242 0,0.397922 0.036,0.14387 0.17459,0.251646 0.19897,0.397926 0.1183,0.709811 -0.1183,1.478772 0,2.188583 0.15508,0.9305 0.21264,1.859055 0.39792,2.78547 0.11145,0.557225 -0.25039,1.488842 0,1.989621 0.24164,0.48328 0.0859,0.768755 0.19896,0.994812 0.30842,0.616829 0.41906,1.477262 0.59689,2.188583 0.0643,0.257363 -0.0643,0.538488 0,0.795849 0.0598,0.239103 0.49579,1.793896 0.79585,1.193773 0.089,-0.177956 -0.0629,-0.408133 0,-0.596887 0.0297,-0.08898 0.13264,-0.132641 0.19896,-0.198961 0.0663,-0.132641 0.163,-0.254056 0.19896,-0.397925 0.0771,-0.308362 0.055,-0.706898 0.19896,-0.99481 0.0676,-0.135125 0.41659,-0.938824 0.59689,-0.397925 0.25341,0.760235 0,4.291507 0,5.371978 0,0.198964 0,0.397925 0,0.596887 0,0.06632 -0.0663,0.198964 0,0.198964 0.0187,0 0.16381,-0.433073 0.39793,-0.198964 0.0469,0.0469 -0.0368,0.14378 0,0.198964 0.10405,0.156077 0.3386,0.219966 0.39792,0.397922 0.0839,0.251669 -0.0643,0.538488 0,0.795849 0.54428,2.177123 0.34532,-0.725014 0.59689,1.79066 0.033,0.329959 0,0.663207 0,0.994812 0.0663,0.331602 0.15113,0.660037 0.19896,0.994809 0.0188,0.131308 0,0.265282 0,0.397926 0.0663,0.265282 0.15401,0.526121 0.19896,0.795848 0.0322,0.193096 -0.1469,1.046874 0,1.193774 0.33492,0.334917 0.31515,-0.389959 0.39793,-0.596887 0.1127,-0.281752 1.37053,-2.796572 1.39273,-2.78547 0.45166,0.225827 0.28737,3.868685 0.39792,3.979243 0.0938,0.09379 0.26925,0.03217 0.39793,0 1.3913,-0.347826 1.40706,-1.598864 2.18858,-1.989621 0.15159,-0.0758 0.35171,0.06029 0.39793,0.198961 0.1997,0.599101 -0.15867,5.611236 0,5.769901 0.16908,0.169087 0.30911,-0.374864 0.39792,-0.596884 0.36558,-0.913934 1.084,-1.74035 1.5917,-2.586509 0.5778,-0.963009 1.09603,-1.787191 1.19377,-1.591698 0.37177,0.743547 0.0825,5.371978 0.99481,5.371978 0.13264,0 0.28756,0.07358 0.39793,0 0.12339,-0.08226 0.10998,-0.279286 0.19896,-0.397923 0.55159,-0.735462 1.33591,-1.33591 1.98962,-1.989622 0.0362,-0.0362 0.48068,-0.713091 0.59689,-0.596886 0.15322,0.15322 0.19896,3.475675 0.19896,3.979243 0,0.06978 -0.0761,0.918694 0,0.994809 0.55987,0.559869 3.37366,-3.039157 3.78028,-3.581318 0.12506,-0.166745 0.60381,-1.186854 0.99481,-0.795848 0.17283,0.172834 -0.0543,0.922399 0,1.193774 0.25458,1.272892 0.43445,2.06266 0.99481,3.183392 0.41402,0.828035 -0.0137,-0.212695 0.39793,0.198964 0.0469,0.04689 -0.0469,0.152067 0,0.198962 0.53895,0.538956 2.01041,-1.005205 2.38754,-1.193774 0.0593,-0.02966 0.15207,0.0469 0.19896,0 0.0469,-0.04689 -0.0469,-0.152066 0,-0.198961 0.0938,-0.09379 0.27929,0.05932 0.39793,0 0.21752,-0.10876 0.49415,-0.590378 0.59689,-0.795848 0.0983,-0.19671 0.86052,-1.455005 0.99481,-1.193774 0.39528,0.768956 0.68381,1.588265 1.02571,2.382396"
       id="path2" /><g
       id="g8"><circle
         style="fill:none;fill-opacity:1;stroke:#fff500;stroke-width:1;stroke-dasharray:none;stroke-opacity:1"
         id="path8"
         cx="51.161747"
         cy="45.560925"
         r="5" /><circle
         style="fill:none;fill-opacity:1;stroke:#fff500;stroke-width:2;stroke-dasharray:none;stroke-opacity:1"
         id="path8-2"
         cx="51.161747"
         cy="45.560925"
         r="10" /><circle
         style="fill:none;fill-opacity:1;stroke:#fff500;stroke-width:4;stroke-dasharray:none;stroke-opacity:1"
         id="path8-2-1"
         cx="51.161747"
         cy="45.560925"
         r="20" /><rect
         style="fill:url(#linearGradient6);fill-opacity:1;stroke:none;stroke-width:1;stroke-dasharray:none;stroke-opacity:1"
         id="rect5"
         width="9.127408"
         height="49.127407"
         x="-0.60332984"
         y="79.420647"
         transform="rotate(-45)" /><rect
         style="fill:url(#linearGradient8);fill-opacity:1;stroke:none;stroke-width:0.971048;stroke-dasharray:none;stroke-opacity:1"
         id="rect5-3"
         width="9.0289516"
         height="9.6331854"
         x="-0.55409735"
         y="69.801941"
         transform="rotate(-45)" /></g><path
       style="fill:none;stroke:#ff0000;stroke-width:0.845;stroke-dasharray:none;stroke-opacity:1"
       d="m 40.433642,56.998719 c 0.972862,-0.0156 1.945393,-0.03278 2.918255,-0.05204 0.972862,-0.01927 1.945393,-0.04063 2.918255,-0.06481 0.97253,-0.02418 1.945393,-0.05119 2.917923,-0.08209 0.972862,-0.0309 1.945724,-0.0657 2.918255,-0.10605 0.972862,-0.04035 1.945393,-0.08623 2.918255,-0.140256 0.972862,-0.05402 1.945393,-0.116171 2.918255,-0.190745 0.972531,-0.07457 1.945393,-0.161513 2.917924,-0.268343 0.972895,-0.106831 1.945624,-0.233362 2.918321,-0.393619 0.972729,-0.160258 1.945459,-0.353686 2.918188,-0.608529 0.97273,-0.254843 1.945459,-0.569428 2.918189,-1.006218 0.972696,-0.43678 1.945426,-0.99058 2.918155,-1.81452 0.97273,-0.82394 1.945459,-1.90427 2.918189,-3.64194 0.972729,-1.73767 1.945459,-4.16665 2.918155,-8.00625 0.97273,-3.8397 1.945459,-9.8278 2.918189,-14.2131 0.97273,-4.3852 1.945459,-4.3802 2.918189,0 0.972696,4.3802 1.945426,10.3707 2.918155,14.2131 0.97273,3.8424 1.945459,6.26719 2.918189,8.00625 0.972719,1.73906 1.945442,2.81743 2.918168,3.64194 0.972726,0.82451 1.945451,1.37748 2.918177,1.81452 0.972727,0.43704 1.945459,0.751248 2.918189,1.006218 0.972696,0.25497 1.945423,0.448202 2.918153,0.608529 0.97273,0.160326 1.94546,0.286748 2.91819,0.393619 0.97273,0.10687 1.94546,0.193743 2.91816,0.268343 0.97273,0.0746 1.94546,0.136704 2.91818,0.190745 0.97273,0.05404 1.94546,0.0999 2.91819,0.140256 0.9727,0.04036 1.94543,0.07514 2.91816,0.10605 0.97273,0.03091 1.94546,0.0579 2.91818,0.08209 0.97273,0.02418 1.94546,0.04553 2.91816,0.06481 0.97273,0.01927 1.94546,0.03644 2.91819,0.05204"
       title="t 1/(1+t*t)"
       id="path1"
       sodipodi:nodetypes="cccccsccssssssccsssssssssssssc" /></g></svg>
