<?xml version="1.0" encoding="UTF-8" standalone="no"?>
<!-- Created with Inkscape (http://www.inkscape.org/) -->

<svg
   width="81mm"
   height="81mm"
   viewBox="0 0 81 81"
   version="1.1"
   id="svg1"
   inkscape:version="1.3.2 (091e20e, 2023-11-25)"
   sodipodi:docname="BLT.svg"
   inkscape:export-filename="../Gamma.png"
   inkscape:export-xdpi="96"
   inkscape:export-ydpi="96"
   xmlns:inkscape="http://www.inkscape.org/namespaces/inkscape"
   xmlns:sodipodi="http://sodipodi.sourceforge.net/DTD/sodipodi-0.dtd"
   xmlns:xlink="http://www.w3.org/1999/xlink"
   xmlns="http://www.w3.org/2000/svg"
   xmlns:svg="http://www.w3.org/2000/svg">
  <sodipodi:namedview
     id="namedview1"
     pagecolor="#ffffff"
     bordercolor="#000000"
     borderopacity="0.25"
     inkscape:showpageshadow="2"
     inkscape:pageopacity="0.0"
     inkscape:pagecheckerboard="0"
     inkscape:deskcolor="#d1d1d1"
     inkscape:document-units="mm"
     inkscape:zoom="0.48907024"
     inkscape:cx="110.41359"
     inkscape:cy="29.648093"
     inkscape:window-width="1512"
     inkscape:window-height="834"
     inkscape:window-x="0"
     inkscape:window-y="38"
     inkscape:window-maximized="0"
     inkscape:current-layer="layer1" />
  <defs
     id="defs1">
    <linearGradient
       id="linearGradient8"
       inkscape:collect="always">
      <stop
         style="stop-color:#000000;stop-opacity:1;"
         offset="0"
         id="stop8" />
      <stop
         style="stop-color:#0005ff;stop-opacity:1;"
         offset="1"
         id="stop9" />
    </linearGradient>
    <linearGradient
       inkscape:collect="always"
       xlink:href="#linearGradient8"
       id="linearGradient9"
       x1="-45.171295"
       y1="56.643158"
       x2="9.0840864"
       y2="56.643158"
       gradientUnits="userSpaceOnUse"
       gradientTransform="matrix(0.6000895,0,0,0.6000895,61.461526,5.3933619)" />
    <linearGradient
       inkscape:collect="always"
       xlink:href="#linearGradient8"
       id="linearGradient17"
       x1="-37.695805"
       y1="-84.497299"
       x2="-8.8407574"
       y2="-84.497299"
       gradientUnits="userSpaceOnUse"
       gradientTransform="matrix(1.0630952,0,0,1.0630952,106.98701,163.779)" />
  </defs>
  <g
     inkscape:label="Layer 1"
     inkscape:groupmode="layer"
     id="layer1"
     transform="translate(-22.471605,-16.060925)">
    <path
       id="path46-8"
       d="m 72.741674,65.591505 c 0,-0.07474 0,-0.766812 -0.843576,-0.766812 -1.457065,0 -6.211832,0.536528 -7.898995,0.69009 -0.536804,0.07471 -1.227351,0.07471 -1.227351,1.303695 0,0.766818 0.53669,0.766818 1.533774,0.766818 3.144211,0 3.220945,0.459867 3.220945,1.073614 0,0.459861 -0.766819,3.527777 -1.227375,5.291596 L 62.311273,89.97862 c -0.230314,0.920231 -0.690163,2.760761 -0.690163,2.914131 0,0.69016 0.690163,0.76683 1.073632,0.76683 h 0.920231 c 4.524699,-0.76683 11.656774,-3.297684 18.328768,-9.58625 8.589219,-8.052385 10.353032,-16.871642 10.353032,-17.485143 0,-1.073633 -0.766819,-1.76379 -1.840553,-1.76379 -0.53669,0 -2.070621,0.306754 -2.530739,2.147265 -4.217945,14.801069 -14.110829,22.086534 -21.549748,24.540588 z m 0,0"
       style="opacity:0.2;fill:#000000;fill-opacity:1;fill-rule:nonzero;stroke:none;stroke-width:6.54422" />
    <path
       id="path28-8"
       d="m 59.947853,24.527597 h -30.88482 v 1.812686 h 1.394356 c 4.601415,0 4.740839,0.697027 4.740839,2.788695 v 31.094064 c 0,2.091513 -0.139346,2.788703 -4.740839,2.788703 h -1.394356 v 1.812654 c 2.091534,-0.209377 6.692907,-0.209377 8.993602,-0.209377 2.440042,0 7.808334,0 9.969587,0.209377 v -1.812654 h -1.952133 c -5.647113,0 -5.647113,-0.766729 -5.647113,-2.858417 V 28.710672 c 0,-1.95207 0.139347,-2.370389 2.928155,-2.370389 h 6.065381 c 8.505557,0 9.760512,3.485874 10.666826,11.503417 h 1.533778 z m 0,0"
       style="opacity:0.2;fill:#000000;fill-opacity:1;fill-rule:nonzero;stroke:none;stroke-width:5.94927" />
    <path
       id="path28"
       d="m 65.239526,19.235927 h -30.88482 v 1.812686 h 1.39435 c 4.60142,0 4.74085,0.697026 4.74085,2.788695 v 31.094063 c 0,2.091513 -0.13935,2.788703 -4.74085,2.788703 h -1.39435 v 1.812655 c 2.09153,-0.209377 6.69291,-0.209377 8.9936,-0.209377 2.44005,0 7.80834,0 9.96959,0.209377 v -1.812655 h -1.95213 c -5.64712,0 -5.64712,-0.76673 -5.64712,-2.858416 V 23.419002 c 0,-1.952071 0.13935,-2.370389 2.92816,-2.370389 h 6.06538 c 8.50556,0 9.76051,3.485873 10.66683,11.503416 h 1.53377 z m 0,0"
       style="fill:url(#linearGradient9);fill-rule:nonzero;stroke:none;stroke-width:5.94927" />
    <path
       id="path46"
       d="m 78.033346,60.299836 c 0,-0.07474 0,-0.766813 -0.84358,-0.766813 -1.45706,0 -6.21183,0.536528 -7.89899,0.690091 -0.53681,0.0747 -1.22735,0.0747 -1.22735,1.303695 0,0.766818 0.53669,0.766818 1.53378,0.766818 3.1442,0 3.22093,0.459867 3.22093,1.073614 0,0.459861 -0.76681,3.527776 -1.22737,5.291595 l -3.98782,16.028115 c -0.23031,0.920231 -0.69016,2.760758 -0.69016,2.914128 0,0.69017 0.69016,0.76683 1.07363,0.76683 h 0.92023 c 4.5247,-0.76683 11.65678,-3.297681 18.32877,-9.586247 8.58922,-8.052385 10.35303,-16.871642 10.35303,-17.485144 0,-1.073632 -0.76682,-1.763789 -1.84055,-1.763789 -0.53669,0 -2.07063,0.306754 -2.53074,2.147264 -4.21795,14.80107 -14.11083,22.086535 -21.54975,24.540589 z m 0,0"
       style="fill:url(#linearGradient17);fill-opacity:1;fill-rule:nonzero;stroke:none;stroke-width:6.54422" />
    <path
       style="fill:#0004e1;stroke:#000000;stroke-width:1;stroke-linecap:round;stroke-linejoin:round"
       d="M 29.063033,88.367908 92.786892,24.644048"
       id="path1" />
  </g>
</svg>
