<?xml version="1.0" encoding="UTF-8" standalone="no"?>
<!-- Created with Inkscape (http://www.inkscape.org/) -->

<svg
   width="81mm"
   height="81mm"
   viewBox="0 0 81 81"
   version="1.1"
   id="svg1"
   inkscape:version="1.3.2 (091e20e, 2023-11-25)"
   sodipodi:docname="display_raw_spectra.svg"
   inkscape:export-filename="../display_raw_spectra.png"
   inkscape:export-xdpi="96"
   inkscape:export-ydpi="96"
   xmlns:inkscape="http://www.inkscape.org/namespaces/inkscape"
   xmlns:sodipodi="http://sodipodi.sourceforge.net/DTD/sodipodi-0.dtd"
   xmlns="http://www.w3.org/2000/svg"
   xmlns:svg="http://www.w3.org/2000/svg">
  <sodipodi:namedview
     id="namedview1"
     pagecolor="#ffffff"
     bordercolor="#000000"
     borderopacity="0.25"
     inkscape:showpageshadow="2"
     inkscape:pageopacity="0.0"
     inkscape:pagecheckerboard="0"
     inkscape:deskcolor="#d1d1d1"
     inkscape:document-units="mm"
     inkscape:zoom="1.3690311"
     inkscape:cx="126.36674"
     inkscape:cy="124.17541"
     inkscape:window-width="1512"
     inkscape:window-height="831"
     inkscape:window-x="0"
     inkscape:window-y="38"
     inkscape:window-maximized="0"
     inkscape:current-layer="layer1" />
  <defs
     id="defs1" />
  <g
     inkscape:label="Layer 1"
     inkscape:groupmode="layer"
     id="layer1"
     transform="translate(-22.471605,-16.060925)">
    <rect
       style="fill:#ffffff;stroke-width:1"
       id="rect3"
       width="81"
       height="81"
       x="22.471605"
       y="16.060925" />
    <rect
       style="fill:#ffffff;stroke-width:1"
       id="rect2"
       width="80.499992"
       height="80.5"
       x="22.971605"
       y="16.560925" />
    <rect
       style="fill:none;stroke:#ffffff;stroke-width:1"
       id="rect1"
       width="80"
       height="80"
       x="22.971605"
       y="16.560925" />
    <path
       style="fill:none;fill-opacity:1;stroke:#000000;stroke-width:1;stroke-opacity:1"
       d="m 33.487607,69.01504 c 0,-0.515369 0,-1.030737 0,-1.546106 0,-2.061474 0,-4.122946 0,-6.184421 0,-0.450948 0,-0.901896 0,-1.352843 0,-0.128842 -0.128842,-0.386525 0,-0.386525 0.346918,0 0.291221,0.632746 0.386526,0.966314 0.372784,1.304745 1.57053,4.401518 3.285475,4.058528 0.582267,-0.116453 0.445992,-0.475726 0.773052,-0.966316 0.228812,-0.343218 0.572728,-0.605729 0.773053,-0.966317 0.128994,-0.232188 0.09462,-0.526436 0.193263,-0.773051 0.45549,-1.138725 1.191111,-2.188957 1.739369,-3.285475 0.24165,-0.483301 0.886551,-2.279276 1.352843,-2.512422 0.749169,-0.374584 1.993415,1.546106 3.285474,1.546106 0.193263,0 0.443132,0.136657 0.57979,0 0.940821,-0.940821 1.482817,-3.352162 2.125895,-4.638318 0.09111,-0.18221 0.04921,-0.435739 0.193263,-0.579789 0.04555,-0.04555 0.14771,0.04555 0.193263,0 0.04555,-0.04555 -0.04555,-0.147709 0,-0.193262 0.451132,-0.451134 2.280423,0.811789 2.319158,0.773051 0.699362,-0.69936 0.916196,-2.006542 1.159579,-2.898947 0.330242,-1.210889 0.960284,-2.30106 1.352843,-3.478736 0.284702,-0.854112 0.361897,-1.690113 0.773052,-2.512423 0.122232,-0.244461 0.4158,-0.361137 0.579789,-0.579789 0.277207,-0.36961 0.349557,-0.683985 0.773054,-0.966316 0.372579,-0.248385 2.042465,-0.668501 2.512423,-0.386527 0.19917,0.119504 0.24716,0.393972 0.386524,0.579789 0.443998,0.591997 -0.123613,-0.316877 0.57979,0.386527 0.320339,0.320339 0.510307,0.931574 0.966316,1.159579 0.11524,0.05762 0.271288,-0.05762 0.386527,0 0.323025,0.161512 0.579835,0.386482 0.966317,0 0.328483,-0.328483 0.503039,-0.781561 0.773052,-1.159579 1.311661,-1.836326 2.004271,-3.886918 2.705684,-5.991159 0.176165,-0.52849 0.254543,-2.5737 0.57979,-2.898948 0.09101,-0.091 0.893532,0.525202 0.966316,0.57979 0.746514,0.559885 1.382287,1.392102 1.932631,2.125895 0.32082,0.427759 0.863163,0.714955 1.159581,1.159579 0.03574,0.0536 -0.04555,0.147711 0,0.193263 0.04555,0.04555 0.147709,-0.04555 0.193262,0 0.04555,0.04555 -0.04555,0.147711 0,0.193264 0.0911,0.0911 0.295421,0.0911 0.386527,0 0.101857,-0.101859 0.0914,-0.284668 0.193263,-0.386527 0.101859,-0.101858 0.300095,-0.07802 0.386527,-0.193263 0.122229,-0.162974 0.09433,-0.401709 0.193262,-0.57979 0.860153,-1.548272 1.796092,-3.122327 2.705685,-4.638316 0.126719,-0.211197 0.867434,-1.451725 1.159579,-1.15958 0.136657,0.136658 -0.06111,0.396444 0,0.57979 0.02881,0.08643 0.152521,0.111777 0.193264,0.193263 0.275667,0.551337 0.366409,1.170354 0.57979,1.739369 0.09489,0.253051 0.678159,1.293055 0.773052,1.546106 0.313507,0.836015 0.586144,1.752077 0.966316,2.512421 0.150953,0.301907 0.07598,1.428821 0.193262,1.546106 0.121108,0.121107 0.768895,0.320719 0.966317,0.386526 0.2375,0.07917 2.007515,1.041199 2.125895,1.159579 0.09663,0.09663 0.09663,0.289895 0.193262,0.386527 0.04555,0.04555 0.147712,-0.04555 0.193265,0 0.656834,0.656835 1.572969,2.646745 1.739368,3.478738 0.0379,0.18951 -0.04687,0.392295 0,0.579789 0.04383,0.175321 0.303332,0.413399 0.386528,0.57979 0.05762,0.115239 -0.05762,0.271285 0,0.386527 0.166875,0.333753 0.428926,0.736896 0.773051,0.966314 0.7141,0.476067 1.728216,0.511651 2.512423,0.773054 0.109304,0.03643 0.502166,-0.07762 0.579789,0 0.02962,0.02962 0.381077,0.740357 0.386527,0.773052 0.33061,1.983668 -0.108826,4.517847 -0.773054,6.377686 -0.374605,1.048895 -0.739569,2.235448 -1.159579,3.285474 -0.106997,0.267493 -0.316651,0.493556 -0.386527,0.773054 -0.06568,0.262731 -0.131262,1.735738 0,1.93263 1.230281,1.845419 7.224128,1.783811 9.276633,2.125896 0.938821,0.156469 2.059847,0.105198 2.705685,0.966316 0.398494,0.531323 0.193264,1.499153 0.193264,2.125896 0,1.301205 -0.367127,2.260962 -0.773054,3.478736 -0.347731,1.043199 -0.498438,2.156457 -0.966314,3.092212 -0.204867,0.409731 0,1.464384 0,1.932633"
       id="path2" />
    <path
       style="fill:none;fill-opacity:1;stroke:#000000;stroke-width:1;stroke-opacity:1"
       d="m 37.159608,28.043243 c -0.400156,-0.13573 -3.09285,-0.385887 -3.285475,-0.193263 -0.279693,0.279693 -0.193263,0.617724 -0.193263,0.966316 0,1.739368 0,3.478737 0,5.218106 0,0.258919 -0.06273,1.101925 0,1.352842 0.116252,0.465009 2.114231,1.375453 2.512422,1.546106 1.045017,0.447865 0.445976,0.04212 1.352842,0.193263 1.532371,0.255395 2.772233,0.24757 4.25179,-0.386526 0.431073,-0.184745 0.921771,-0.201781 1.352843,-0.386527 0.213493,-0.0915 0.356453,-0.322716 0.579789,-0.386526 0.24777,-0.07079 0.518875,0.04236 0.773053,0 0.28418,-0.04736 0.490548,-0.330025 0.773053,-0.386526 1.227972,-0.245595 2.623286,0.155247 3.865263,0 1.665671,-0.208209 3.004153,-1.212182 4.445055,-1.932632 0.182211,-0.09111 0.416814,-0.07103 0.57979,-0.193264 0.115239,-0.08643 0.07341,-0.306621 0.193262,-0.386526 0.160806,-0.107203 0.443132,0.136658 0.579789,0 0.04555,-0.04555 -0.04555,-0.14771 0,-0.193263 0.207883,-0.207884 0.833628,0.320183 0.966317,0.386526 0.411485,0.205743 0.361569,0.374047 0.773052,0.57979 0.115241,0.05762 0.260185,-0.02527 0.386527,0 0.34018,0.06804 0.626133,0.31849 0.966316,0.386526 0.315849,0.06317 0.653828,-0.07812 0.966317,0 0.139747,0.03494 0.246777,0.158326 0.386524,0.193263 0.900073,0.225019 0.909402,-0.136348 1.352844,-0.579789 0.101859,-0.101859 0.30662,-0.07341 0.386527,-0.193263 0.07147,-0.107203 -0.03125,-0.261531 0,-0.386527 0.102314,-0.409263 0.477472,-0.750316 0.579789,-1.159579 0.03125,-0.124995 -0.04074,-0.264296 0,-0.386526 0.238816,-0.716447 0.193263,0.235578 0.193263,-0.386527 0,-1.051414 2.755706,-0.436549 3.285474,-0.966316 0.04555,-0.04555 -0.04555,-0.14771 0,-0.193263 0.04555,-0.04555 0.164454,0.05762 0.193262,0 0.06827,-0.136538 0.01923,-1.275964 0,-1.352842 -0.04419,-0.17677 -0.285454,-0.234918 -0.386525,-0.386527 -0.595801,-0.893702 -2.252424,-2.499074 -3.285474,-2.705684 -1.163375,-0.232675 -2.315289,-0.288928 -3.478739,-0.57979 -0.189624,-0.04741 -1.012692,0.146885 -1.159578,0 -0.260774,-0.260774 -0.05222,-0.8775 -0.193263,-1.159579 -0.08149,-0.162974 -0.30504,-0.223552 -0.386527,-0.386526 -0.05762,-0.11524 0.05762,-0.271287 0,-0.386527 -0.08149,-0.162974 -0.277201,-0.240758 -0.386527,-0.386526 -0.534165,-0.71222 -0.766932,-1.19077 -1.739368,-1.352843 -2.005851,-0.334308 -3.341037,1.518928 -4.445053,2.898948 -0.284565,0.355706 -0.693002,0.601896 -0.966316,0.966316 -0.221452,0.29527 -0.404448,0.782013 -0.773053,0.966316 -0.791376,0.395688 -1.983156,-0.459368 -2.705685,-0.579789 -0.993537,-0.16559 -2.01457,-0.481822 -3.092211,-0.57979 -0.449095,-0.04083 -0.908031,0.07414 -1.352842,0 -0.569677,-0.09495 -1.020617,-0.255154 -1.546106,-0.386526 -0.176751,-0.04419 -2.694509,-0.10222 -2.898948,0 -0.08149,0.04074 -0.111776,0.15252 -0.193263,0.193263 -0.116687,0.05834 -0.490451,-0.08934 -0.57979,0 -0.0014,0.0014 -0.0098,3.468937 0,3.478737 0.179297,0.179297 0.3357,-0.579789 0.386527,-0.579789 0.328484,0 0.64421,0.128842 0.966316,0.193263 z"
       id="path3" />
    <path
       style="fill:none;fill-opacity:1;stroke:#000000;stroke-width:1;stroke-opacity:1"
       d="m 53.200453,46.596511 c 1.095158,0.901893 2.190316,1.803789 3.285474,2.705685 0,0.06442 -0.04555,0.147709 0,0.193262 0.284766,0.284766 1.043946,-0.317146 1.159579,-0.386527 1.661983,-0.997188 3.353321,-1.943793 5.024842,-2.898947 0.08192,-0.04681 1.685952,-0.826474 1.739371,-0.773054 0.41788,0.41788 0.07058,1.055385 0.193262,1.546105 0.207418,0.829668 0.309214,1.700694 0.57979,2.512423 0.05798,0.173937 -0.05798,0.405852 0,0.579789 0.06673,0.200187 0.29066,0.388059 0.386527,0.57979 0.05266,0.105325 0.189386,0.773054 0.386527,0.773054 0.310764,0 0.668308,-0.767646 0.966314,-0.966317 0.353078,-0.235384 2.292641,-1.379362 2.31916,-1.352843 0.130538,0.13054 -0.08152,2.491359 0,2.898949 0.02825,0.141251 0.158324,0.246777 0.193262,0.386525 0.0625,0.249991 -0.08149,0.528592 0,0.773054 0.02881,0.08643 0.164455,0.106834 0.193263,0.193262 0.119999,0.359998 0.02714,0.634058 0.193264,0.966317 0.115957,0.231915 0.463831,0.347874 0.57979,0.579789 0.172709,0.345416 0.808559,1.045194 1.352841,0.773052 0.08149,-0.04074 0.106833,-0.164452 0.193265,-0.193262 0.122229,-0.04074 0.271285,0.05762 0.386524,0 0.162976,-0.08149 0.230283,-0.29278 0.386527,-0.386527 0.174686,-0.104813 0.405104,-0.08845 0.57979,-0.193263 0.37025,-0.222149 0.850471,-0.657206 1.159579,-0.966316 0.45172,-0.451721 0.835435,-0.814639 1.352843,-1.159579 0.307279,-0.204854 0.05518,-0.414118 0.386527,-0.579789 0.318326,-0.159163 0.340937,0.636288 0.386525,0.773051 0.121663,0.36499 0.553598,0.830398 0.773054,1.159582 0.295884,0.443825 0.512583,1.386443 1.352841,0.966314 0.162976,-0.08149 0.240758,-0.277199 0.386527,-0.386525 0.230479,-0.17286 0.548085,-0.206552 0.773052,-0.386527 0.213423,-0.170738 0.352377,-0.428181 0.579789,-0.57979 0.169506,-0.113003 0.410287,-0.08026 0.57979,-0.193264 0.494419,-0.32961 1.801757,-1.639687 2.125895,-2.125893 0.181811,-0.272717 0.40187,-0.506174 0.579789,-0.773054 0.113004,-0.169503 0.04922,-0.43574 0.193265,-0.57979 0.04555,-0.04555 0.147709,0.04555 0.193263,0 0.09111,-0.0911 -0.0911,-0.29542 0,-0.386527 0.09663,-0.09663 0.289896,-0.09663 0.386527,-0.193262 0.04555,-0.04555 -0.02881,-0.135644 0,-0.193262 0.266525,-0.533054 1.109662,-0.79174 1.546106,-0.966317"
       id="path4" />
    <path
       style="fill:none;fill-opacity:1;stroke:#000000;stroke-width:1;stroke-opacity:1"
       d="m 59.964664,80.417568 c -1.546104,0 -3.09221,0 -4.638316,0 -1.030737,0 -2.061474,0 -3.092211,0 -0.327303,0 -1.240232,-0.08065 -1.352841,-0.193262 -0.04555,-0.04555 0.04555,-0.147712 0,-0.193265 -0.149344,-0.149341 -0.731441,-0.07582 -0.966317,-0.193262 -0.182211,-0.0911 -0.579789,-0.396981 -0.579789,-0.193262 0,0.06442 0.128841,0 0.193262,0 0.665901,0 0.913985,-0.738167 1.546106,-1.159579 0.306631,-0.204422 0.748691,-0.253355 0.966316,-0.57979 0.0799,-0.119858 0.0914,-0.284667 0.193263,-0.386527 0.754255,-0.754255 0.10379,0.04474 0.579789,-0.193265 0.231915,-0.115956 0.347874,-0.46383 0.579789,-0.579789 0.05762,-0.02881 0.147712,0.04555 0.193265,0 0.14405,-0.14405 0.04921,-0.43574 0.193263,-0.579789 0.362899,-0.362898 2.125895,-1.601759 2.125895,-1.932631 0,-0.06442 -0.147712,-0.04555 -0.193262,0 -0.04555,0.04555 0.04555,0.147709 0,0.193263 -0.09309,0.09309 -1.199642,0.262556 -1.546106,0.193262 -0.514689,-0.102936 -4.386879,-1.797542 -4.058529,-2.125893 0.12259,-0.122589 0.612146,0.08045 0.773055,0 0.474866,-0.237434 1.309634,-1.202319 1.739368,-1.546106 0.405035,-0.32403 0.967502,-0.451935 1.352841,-0.773054 0.524973,-0.437475 0.979747,-0.975267 1.546106,-1.352841 0.07865,-0.05243 0.490884,-0.342075 0.579789,-0.386527 0.116689,-0.05834 0.490453,0.08934 0.57979,0 0.01048,-0.01048 0.376054,-0.569317 0.386527,-0.57979 0.235055,-0.235055 0.386527,0.09272 0.386527,-0.193262 0,-0.06442 -0.147712,0.04555 -0.193265,0 -0.09663,-0.09663 -0.09663,-0.289896 -0.193262,-0.386527 -0.07164,-0.07164 -0.653653,-0.133564 -0.773052,-0.193262 -0.473612,-0.236808 -0.550542,-1.130332 -0.773054,-1.352844 -0.04555,-0.04555 -0.147709,0.04555 -0.193263,0 -0.09111,-0.0911 0.0911,-0.29542 0,-0.386527 -0.04555,-0.04555 -0.147711,0.04555 -0.193264,0 -0.04768,-0.04768 -0.04768,-1.111898 0,-1.159579 0.122589,-0.122589 0.612145,0.08046 0.773054,0 0.943893,-0.471945 1.463257,-1.36203 2.319157,-1.93263 0.355492,-0.236996 0.863008,-0.476483 1.159579,-0.773055 0.261946,-0.261942 0.634291,-0.882054 0.773054,-1.159578 0.04031,-0.08062 0.616035,-0.459018 0.773052,-0.773052 0.05762,-0.115242 -0.0911,-0.295423 0,-0.386527 0.04555,-0.04555 0.135644,0.02881 0.193265,0 0.804315,-0.402159 -0.206605,0.01334 0.193262,-0.386527 0.04555,-0.04555 0.147712,0.04555 0.193263,0 0.198241,-0.198239 -0.13248,-0.894617 0,-1.159579 0.05009,-0.100179 0.530251,-0.579789 0.386527,-0.579789 -0.101659,0 0.151296,2.773045 0.193262,2.898947 0.106855,0.320558 0.386527,0.65633 0.386527,0.966316 0,0.648679 0.617276,0.654764 0.773054,0.966317 0.133289,0.266578 -0.234053,0.172868 0.193263,0.386527 0.117128,0.05856 0.498803,0.112276 0.579789,0.193262 0.04555,0.04555 -0.02881,0.135644 0,0.193262 0.402159,0.804315 -0.01333,-0.206605 0.386527,0.193265 0.04555,0.04555 -0.04555,0.147709 0,0.193262 0.0911,0.0911 0.271285,-0.05762 0.386525,0 0.429831,0.214916 1.568534,0.602218 1.73937,0.773052 0.0911,0.09111 0.0911,0.295423 0,0.386527 -0.05774,0.05774 -0.748172,-0.0062 -0.773054,0 -0.685263,0.171315 -1.272505,0.746273 -1.93263,0.966317 -0.122232,0.04074 -0.279324,-0.07147 -0.386527,0 -0.119857,0.0799 -0.07341,0.306623 -0.193263,0.386527 -0.107204,0.07147 -0.264297,-0.04074 -0.386527,0 -0.08643,0.02881 -0.111776,0.152519 -0.193265,0.193262 -0.115239,0.05762 -0.29542,-0.0911 -0.386524,0 -0.04555,0.04555 0.04555,0.147712 0,0.193262 -0.09663,0.09663 -0.483158,-0.09663 -0.57979,0 -0.04555,0.04555 0.04555,0.147712 0,0.193265 -0.235055,0.235056 -0.386527,-0.09272 -0.386527,0.193262 0,0.160523 1.136698,0.193263 1.352841,0.193263 0.769149,0 4.894818,-0.161645 5.218107,0 0.291619,0.145809 0.412502,0.266342 0.773055,0.386527 0.398372,0.132792 1.159578,-0.0521 1.159578,0.579789 0,0.06442 0.04555,0.147712 0,0.193265 -0.07745,0.07745 -2.366618,1.433081 -2.705684,1.546103 -0.173937,0.05798 -0.405853,-0.05798 -0.57979,0 -0.360553,0.120185 -0.481435,0.240718 -0.773054,0.386528 -0.206147,0.103073 -0.566904,-0.103074 -0.773052,0 -0.573928,0.286964 -2.012915,0.660071 -2.31916,0.966316 -0.04555,0.04555 0.04555,0.147712 0,0.193262 -0.04555,0.04555 -0.147709,-0.04555 -0.193262,0 -0.04555,0.04555 0,0.128844 0,0.193265 0,0.714902 0.70104,0.31451 1.159579,0.773052 0.101859,0.101859 0.09141,0.284668 0.193265,0.386527 0.04555,0.04555 0.13966,-0.03574 0.193262,0 0.470217,0.313478 0.883391,0.731589 1.352841,0.966316 0.804317,0.402157 -0.206605,-0.01333 0.193265,0.386525 0.0911,0.09111 0.271285,-0.05762 0.386527,0 0.2881,0.14405 0.515366,0.386527 0.773052,0.579789 0.286919,0.215191 0.475347,0.574585 0.773051,0.773055 0.492591,0.328393 1.062051,0.724286 1.546106,0.966316 0.405805,0.202901 2.274337,1.397664 2.125896,1.546103 -0.05574,0.05575 -2.348395,0.32698 -2.705685,0.386528 -0.428242,0.07137 -0.75837,0.306284 -1.159579,0.386527 -0.555987,0.111196 -0.701879,-0.03559 -1.159579,0.193262 -0.564213,0.282107 -2.05863,-0.215683 -2.705684,0 -0.08643,0.02881 -0.111776,0.152522 -0.193263,0.193265 -0.154612,0.0773 -0.42518,-0.07731 -0.579792,0 -0.377613,0.188807 -1.710153,0.550574 -1.93263,0.773052 -0.09663,0.09663 -0.09663,0.289896 -0.193262,0.386527 -0.09111,0.0911 -0.328909,-0.11524 -0.386528,0 -0.118787,0.237572 -0.128841,0.515368 -0.193264,0.773051 z"
       id="path5" />
  </g>
</svg>
